<svg fill="none" xmlns="http://www.w3.org/2000/svg" viewBox="0 0 512 512"><rect width="512" height="512" rx="50" fill="#fff"/><path d="M152.136 255.887c0 14.69 2.775 28.237 8.325 40.642 5.549 12.405 13.057 23.177 22.524 32.318 9.467 9.14 20.403 16.322 32.808 21.545 12.731 4.897 26.115 7.345 40.152 7.345 14.037 0 27.258-2.448 39.663-7.345 12.731-5.223 23.831-12.405 33.297-21.545 9.794-9.141 17.465-19.913 23.015-32.318 5.549-12.405 8.324-25.952 8.324-40.642 0-14.69-2.775-28.238-8.324-40.642-5.55-12.405-13.221-23.178-23.015-32.318-9.466-9.141-20.566-16.159-33.297-21.056-12.405-5.223-25.626-7.835-39.663-7.835-14.037 0-27.421 2.612-40.152 7.835-12.405 4.897-23.341 11.915-32.808 21.056-9.467 9.14-16.975 19.913-22.524 32.318-5.55 12.404-8.325 25.952-8.325 40.642Zm-100.381 0c0-27.422 5.06-52.884 15.18-76.388 10.12-23.83 24.156-44.56 42.111-62.188C127 99.683 148.382 85.973 173.192 76.18 198.328 66.06 225.912 61 255.945 61c29.707 0 57.128 5.06 82.264 15.18 25.136 9.793 46.681 23.503 64.636 41.131 18.281 17.628 32.481 38.358 42.601 62.188 10.119 23.504 15.179 48.966 15.179 76.388 0 27.421-5.06 53.047-15.179 76.877-10.12 23.504-24.32 44.07-42.601 61.698-17.955 17.628-39.5 31.502-64.636 41.621-25.136 9.794-52.557 14.69-82.264 14.69-30.033 0-57.617-4.896-82.753-14.69-24.81-10.119-46.192-23.993-64.146-41.621-17.955-17.628-31.992-38.194-42.112-61.698-10.12-23.83-15.18-49.456-15.18-76.877Z" fill="#0E08BD"/></svg>