<?xml version="1.0" standalone="no"?>
<!DOCTYPE svg PUBLIC "-//W3C//DTD SVG 20010904//EN"
 "http://www.w3.org/TR/2001/REC-SVG-20010904/DTD/svg10.dtd">
<svg version="1.0" xmlns="http://www.w3.org/2000/svg"
 width="818.000000pt" height="818.000000pt" viewBox="0 0 818.000000 818.000000"
 preserveAspectRatio="xMidYMid meet">
<metadata>
Created by potrace 1.14, written by Peter Selinger 2001-2017
</metadata>
<g transform="translate(0.000000,818.000000) scale(0.100000,-0.100000)"
fill="#000000" stroke="none">
<path d="M3798 7985 c-2 -2 -47 -7 -101 -10 -54 -4 -106 -8 -115 -10 -9 -1
-46 -6 -82 -10 -82 -9 -107 -12 -150 -19 -19 -4 -62 -11 -95 -17 -68 -11 -89
-16 -125 -24 -14 -3 -38 -8 -55 -11 -43 -7 -178 -42 -259 -65 -38 -12 -77 -22
-87 -24 -10 -2 -28 -9 -41 -16 -13 -7 -24 -12 -25 -11 -7 4 -264 -91 -343
-126 -122 -54 -345 -164 -350 -172 -3 -5 -12 -10 -20 -12 -8 -2 -39 -18 -68
-35 -29 -18 -54 -33 -57 -33 -5 0 -270 -177 -295 -197 -294 -235 -444 -376
-617 -579 -99 -117 -333 -437 -333 -457 0 -2 -23 -42 -51 -88 -42 -70 -187
-349 -189 -364 0 -3 -11 -29 -24 -57 -13 -29 -36 -84 -50 -123 -15 -38 -31
-79 -36 -90 -11 -27 -22 -58 -25 -70 -2 -5 -14 -46 -28 -90 -14 -44 -31 -100
-37 -125 -6 -25 -14 -52 -17 -60 -3 -8 -7 -20 -8 -26 -2 -7 -10 -43 -18 -80
-26 -111 -63 -337 -73 -434 -15 -154 -19 -238 -18 -470 0 -241 4 -340 20 -455
2 -22 7 -60 9 -85 2 -25 5 -45 5 -45 2 0 9 -35 14 -75 6 -37 20 -116 31 -164
3 -16 13 -59 21 -95 8 -36 17 -77 20 -91 3 -13 9 -29 15 -36 5 -6 7 -13 4 -16
-4 -4 73 -255 92 -298 3 -8 7 -17 8 -20 24 -71 147 -343 163 -362 8 -10 12
-18 7 -18 -4 0 -3 -6 2 -12 6 -7 29 -49 53 -93 24 -44 51 -92 61 -107 11 -14
19 -29 19 -33 0 -3 13 -26 30 -50 16 -24 30 -48 30 -54 0 -6 4 -11 8 -11 5 0
15 -12 23 -27 8 -16 16 -30 19 -33 3 -3 38 -50 77 -105 39 -55 80 -109 90
-120 10 -11 45 -54 78 -94 68 -84 309 -330 399 -406 32 -27 66 -57 75 -65 9
-8 66 -52 126 -97 61 -46 115 -87 121 -92 6 -4 42 -28 80 -51 38 -24 79 -52
91 -63 13 -11 23 -17 23 -12 0 4 8 1 18 -7 43 -38 439 -244 507 -264 12 -3
131 -51 160 -64 31 -14 193 -67 260 -86 181 -49 260 -69 322 -79 11 -1 29 -6
40 -9 18 -5 72 -16 108 -20 11 -2 34 -6 50 -9 17 -3 53 -9 80 -12 28 -4 61 -8
75 -11 14 -2 52 -6 85 -9 33 -3 76 -7 95 -10 192 -28 777 -22 1025 10 17 2 50
6 75 9 44 4 99 12 150 22 14 2 39 7 55 9 27 4 245 50 288 61 22 5 58 14 77 19
8 2 15 4 15 5 0 1 7 3 16 5 52 10 328 99 384 124 11 5 45 19 75 31 164 66 510
241 518 262 2 4 8 8 14 8 21 0 282 176 398 268 149 119 221 184 370 334 145
147 217 227 300 337 14 18 34 45 46 59 18 23 120 169 154 222 39 60 120 200
120 208 0 6 4 12 8 14 8 3 144 272 148 293 1 6 20 52 42 103 22 50 38 92 36
92 -3 0 1 10 8 23 7 12 13 24 13 27 1 4 38 123 80 255 11 33 58 235 70 295 7
38 19 107 21 125 2 11 5 36 8 55 9 54 18 131 22 175 1 22 6 74 10 115 13 135
7 710 -7 710 -3 0 -5 12 -4 28 1 15 -2 45 -6 67 -4 22 -10 65 -13 95 -3 30 -8
66 -11 80 -3 14 -9 50 -15 80 -14 75 -15 83 -39 180 -12 47 -23 94 -26 104
-28 120 -118 377 -170 493 -14 29 -25 56 -25 58 0 8 -123 254 -160 320 -59
107 -157 263 -171 275 -3 3 -12 16 -19 29 -7 14 -17 30 -22 35 -5 6 -41 54
-80 106 -40 52 -76 100 -82 106 -6 6 -36 41 -66 77 -107 129 -412 418 -555
525 -5 4 -28 21 -50 37 -22 17 -41 33 -43 38 -2 4 -8 7 -14 7 -6 0 -27 14 -48
30 -21 17 -43 30 -49 30 -6 0 -11 4 -11 9 0 5 -9 13 -20 16 -11 3 -26 12 -33
18 -14 13 -16 14 -147 90 -78 46 -228 122 -325 167 -22 10 -60 28 -85 39 -25
11 -70 30 -100 41 -30 11 -64 25 -75 30 -11 5 -60 23 -110 40 -49 17 -97 34
-105 37 -8 3 -21 7 -28 9 -8 1 -21 6 -30 10 -9 4 -26 9 -37 11 -11 2 -31 7
-45 13 -31 12 -148 42 -177 45 -12 2 -26 6 -31 9 -5 3 -27 8 -48 11 -22 4 -47
8 -56 11 -36 10 -222 42 -293 50 -22 2 -50 6 -61 9 -12 3 -55 7 -95 11 -41 3
-94 8 -119 11 -55 5 -657 13 -662 8z m532 -1868 c14 -3 46 -8 73 -11 26 -3 51
-7 55 -10 5 -3 26 -7 48 -10 21 -3 57 -10 79 -16 22 -6 47 -12 55 -14 39 -10
173 -57 245 -86 183 -74 336 -160 495 -278 69 -52 285 -259 338 -324 81 -102
169 -235 244 -373 44 -82 147 -364 153 -420 1 -5 4 -23 8 -40 13 -55 24 -121
34 -200 9 -70 8 -428 -1 -495 -9 -70 -16 -111 -21 -130 -2 -8 -7 -35 -10 -60
-4 -24 -10 -49 -13 -55 -4 -5 -8 -19 -9 -30 -9 -59 -116 -343 -144 -380 -4 -5
-22 -37 -40 -70 -45 -84 -122 -197 -193 -285 -84 -104 -294 -310 -317 -310 -5
0 -9 -4 -9 -9 0 -5 -15 -19 -33 -30 -18 -11 -46 -31 -62 -45 -17 -14 -35 -26
-41 -26 -7 0 -14 -7 -18 -15 -3 -8 -10 -15 -16 -15 -5 0 -38 -17 -72 -38 -75
-46 -242 -128 -298 -147 -3 -1 -12 -4 -20 -7 -96 -36 -236 -76 -290 -83 -14
-2 -25 -4 -25 -5 0 -2 -26 -7 -75 -14 -25 -4 -56 -9 -70 -11 -129 -23 -490
-23 -603 1 -12 2 -44 7 -71 10 -27 3 -60 10 -73 15 -13 5 -23 7 -23 4 0 -2
-18 2 -40 10 -22 8 -40 12 -40 10 0 -2 -15 1 -32 6 -18 6 -40 12 -49 14 -55
12 -191 66 -290 114 -111 55 -320 184 -327 202 -2 5 -8 9 -14 9 -5 0 -15 6
-23 13 -7 6 -32 28 -56 47 -133 109 -313 311 -404 455 -21 33 -45 71 -55 85
-43 63 -188 390 -173 390 3 0 1 6 -5 13 -5 6 -12 26 -15 42 -3 17 -9 41 -15
55 -5 14 -10 28 -10 33 0 4 -4 21 -7 38 -4 17 -8 40 -10 52 -2 12 -6 33 -9 47
-8 40 -17 111 -21 165 -6 70 -6 322 0 370 2 22 7 63 10 91 3 29 8 62 11 75 2
13 7 42 10 64 4 22 10 48 15 58 6 9 8 17 6 17 -3 0 6 37 20 83 13 45 25 87 26
92 2 6 6 16 10 22 5 7 10 22 12 34 7 35 123 265 177 353 187 299 438 536 743
702 97 53 280 133 280 123 0 -1 19 8 43 20 23 12 42 19 42 15 0 -4 7 -1 15 6
8 7 15 10 15 7 0 -4 18 0 40 8 22 8 44 15 48 16 4 1 12 3 17 4 36 9 115 25
140 29 17 3 61 10 98 16 37 6 71 9 75 7 4 -3 16 -1 27 3 23 9 398 6 435 -3z"/>
</g>
</svg>
